<?xml version="1.0" encoding="UTF-8"?>
<svg version="1.1" xmlns="http://www.w3.org/2000/svg" width="500" height="500">
<path d="M0 0 C1.26223892 -0.00960754 2.52447784 -0.01921509 3.82496643 -0.02911377 C5.1970298 -0.03396465 6.56909529 -0.03824276 7.94116211 -0.04199219 C8.6387155 -0.04481956 9.33626888 -0.04764694 10.05496025 -0.05056 C13.75165048 -0.06552427 17.44830202 -0.07476922 21.14501953 -0.07910156 C24.93172138 -0.08456024 28.71805893 -0.10854044 32.50464725 -0.13707352 C35.44322174 -0.15586393 38.38171167 -0.16091427 41.32034111 -0.16243744 C42.71435967 -0.16543128 44.10837795 -0.17334669 45.5023365 -0.18662262 C61.48611267 -0.32789779 73.9200866 2.463 85.65600586 13.72363281 C89.36988345 17.56537473 92.56072701 21.62020022 95.71850586 25.91113281 C100.31360855 32.14960097 105.22282776 36.68340678 112.65600586 39.16113281 C123.17138874 40.44392048 133.82399208 40.82574204 144.40600586 41.16113281 C145.17181221 41.18598503 145.93761856 41.21083725 146.72663116 41.23644257 C171.73037428 42.01667862 171.73037428 42.01667862 193.08789062 30.28216553 C198.86381183 24.51374162 203.83751991 18.05163494 208.3059082 11.23388672 C210.7046414 8.09754182 211.89008934 7.09117378 215.65600586 6.16113281 C220.7488794 5.72922834 224.63941994 6.71295653 228.59350586 9.97363281 C232.78526736 13.82846786 233.8590395 17.18255629 234.11694336 22.86816406 C232.59424054 30.44296538 226.88737664 35.16443067 221.40600586 40.09863281 C220.66092773 40.78248047 219.91584961 41.46632812 219.14819336 42.17089844 C217.32464299 43.84248627 215.49400289 45.50546662 213.65600586 47.16113281 C217.09385966 54.32459029 222.64696609 59.4758888 228.65600586 64.53613281 C237.67195614 72.39531966 239.76611857 80.48207677 240.65600586 92.16113281 C240.78003208 95.36076898 240.79323654 98.55457823 240.78540039 101.75634766 C240.78802887 103.11021828 240.78802887 103.11021828 240.79071045 104.49143982 C240.79508021 107.45167007 240.79220371 110.41183953 240.78881836 113.37207031 C240.78949385 115.46546439 240.7904659 117.55885839 240.79171753 119.6522522 C240.79318883 124.04161322 240.79106211 128.43095386 240.78637695 132.8203125 C240.78185648 137.26531312 240.78177218 141.71027292 240.78637695 146.15527344 C240.80014786 159.6176688 240.76742582 173.0787462 240.67164612 186.54081726 C240.65708743 188.97992993 240.65080182 191.41888172 240.64807129 193.85803223 C240.64186708 197.74368129 240.58804469 201.62754778 240.52319336 205.51269531 C240.52634552 206.55726898 240.52949768 207.60184265 240.53274536 208.67807007 C240.27632532 218.50873318 236.41613556 226.82345974 229.34350586 233.66113281 C222.61558875 239.50480939 215.13188479 241.75380548 206.37968445 241.90205383 C205.51579375 241.93061913 204.65190305 241.95918442 203.76183385 241.98861533 C201.05983243 242.06959469 198.35889229 242.12035455 195.65600586 242.16113281 C194.40654848 242.1827525 194.40654848 242.1827525 193.13184953 242.20480895 C187.11346295 242.29894771 181.09614704 242.30826596 175.07714844 242.30639648 C173.10853005 242.30939871 171.13991224 242.31280362 169.17129517 242.3165741 C163.89311474 242.32529989 158.61495057 242.32774702 153.33676362 242.32838988 C150.03128218 242.32910573 146.72580476 242.33124982 143.42032433 242.3338871 C131.86859249 242.34309521 120.3168721 242.34722679 108.76513672 242.34643555 C98.02329359 242.34583258 87.28150031 242.35643874 76.53966981 242.37217921 C67.28145069 242.38525918 58.02324789 242.39061941 48.7650196 242.38998014 C43.2502123 242.38972574 37.73544965 242.39254611 32.22065163 242.40315819 C27.04533885 242.4128495 21.8701134 242.41291128 16.69479752 242.40564156 C14.80057968 242.40459775 12.90635635 242.40694645 11.0121479 242.41300201 C8.41948045 242.4207523 5.82711258 242.41605758 3.23445129 242.40837097 C2.49222865 242.41351453 1.75000601 242.4186581 0.98529178 242.42395753 C-9.25370174 242.35723818 -17.34631882 239.69566754 -25.34399414 233.16113281 C-31.43874474 226.15155149 -34.81007514 218.46026868 -34.73167419 209.18023682 C-34.73705973 208.40614212 -34.74244527 207.63204742 -34.74799401 206.83449531 C-34.7622333 204.25603545 -34.7551799 201.67809192 -34.74804688 199.09960938 C-34.75375269 197.244523 -34.76071777 195.38944014 -34.7688446 193.53436279 C-34.78677127 188.50522277 -34.7856081 183.47625728 -34.77990222 178.44709492 C-34.77680856 174.2425924 -34.78290506 170.03812331 -34.78894097 165.83362556 C-34.80298402 155.90923764 -34.80142773 145.98493579 -34.79003906 136.06054688 C-34.77856786 125.8386906 -34.79261728 115.617097 -34.81943554 105.39527535 C-34.84162771 96.60605663 -34.8482217 87.81692013 -34.84235913 79.02767539 C-34.83899558 73.78419694 -34.84136411 68.54088671 -34.85861015 63.29743195 C-34.87413244 58.36266652 -34.87006525 53.42828832 -34.85130501 48.4935379 C-34.84763321 46.68886385 -34.85068621 44.88416077 -34.8611908 43.07951355 C-34.92972138 30.32608598 -34.38704378 19.5059456 -25.06665039 9.80957031 C-17.65358249 2.71588629 -10.15140744 0.06259035 0 0 Z " fill="#DDFAFB" transform="translate(147.343994140625,128.8388671875)"/>
<path d="M0 0 C1.26223892 -0.00960754 2.52447784 -0.01921509 3.82496643 -0.02911377 C5.1970298 -0.03396465 6.56909529 -0.03824276 7.94116211 -0.04199219 C8.6387155 -0.04481956 9.33626888 -0.04764694 10.05496025 -0.05056 C13.75165048 -0.06552427 17.44830202 -0.07476922 21.14501953 -0.07910156 C24.93172138 -0.08456024 28.71805893 -0.10854044 32.50464725 -0.13707352 C35.44322174 -0.15586393 38.38171167 -0.16091427 41.32034111 -0.16243744 C42.71435967 -0.16543128 44.10837795 -0.17334669 45.5023365 -0.18662262 C61.48611267 -0.32789779 73.9200866 2.463 85.65600586 13.72363281 C89.36988345 17.56537473 92.56072701 21.62020022 95.71850586 25.91113281 C100.31360855 32.14960097 105.22282776 36.68340678 112.65600586 39.16113281 C114.75629371 39.27862058 116.86000034 39.33797606 118.96337891 39.36645508 C120.26450119 39.3864003 121.56562347 39.40634552 122.90617371 39.42689514 C124.32668946 39.44387827 125.74720646 39.46075712 127.16772461 39.47753906 C128.62075892 39.49811418 130.07378732 39.51911081 131.52680969 39.54051208 C135.34900115 39.59567515 139.17124612 39.64510979 142.99353027 39.69335938 C146.89474238 39.74361654 150.79587691 39.79928059 154.69702148 39.85449219 C162.34995055 39.96200323 170.00294419 40.0634638 177.65600586 40.16113281 C174.56436333 46.61514268 169.95201792 52.57627269 163.65600586 56.16113281 C158.45265125 57.59948418 153.0980234 57.61022396 147.73413086 57.84082031 C134.51141544 58.44274259 126.20502731 65.14772621 117.50756836 74.46191406 C114.88591165 77.36984363 112.34933529 80.34415227 109.81616211 83.32910156 C106.34304002 87.3798107 102.86572473 90.87549857 98.65600586 94.16113281 C102.46076007 98.72144106 106.40570207 103.01202673 110.65600586 107.16113281 C108.73178083 111.76254049 105.3107988 114.56632912 101.74975586 117.94238281 C98.03697865 121.87681836 97.40293719 124.53224874 97.53100586 129.91113281 C97.54905273 130.89597656 97.56709961 131.88082031 97.58569336 132.89550781 C97.60889648 133.64316406 97.63209961 134.39082031 97.65600586 135.16113281 C91.29231135 129.92098495 85.4121736 124.20498867 79.55664062 118.41186523 C78.41089177 117.28277113 77.25979112 116.15908312 76.10351562 115.04077148 C74.41462598 113.4068012 72.74293046 111.75683636 71.07397461 110.10253906 C70.55941208 109.6106459 70.04484955 109.11875275 69.51469421 108.61195374 C65.87684874 104.95240763 64.69452281 102.07386621 63.65600586 97.16113281 C56.37926694 97.1993517 49.10302361 97.25894552 41.826684 97.34503555 C38.44710044 97.38436641 35.06777179 97.41662437 31.68798828 97.43212891 C27.79279054 97.45363745 23.89856602 97.5003325 20.00366211 97.55175781 C18.80330826 97.55298645 17.60295441 97.55421509 16.3662262 97.55548096 C6.13211393 97.73242274 -1.04024733 100.24459943 -8.55493164 107.23535156 C-15.35714496 114.55738468 -17.64912324 122.22270851 -17.59936523 132.04052734 C-17.60479591 133.34893585 -17.60479591 133.34893585 -17.6103363 134.68377686 C-17.6172072 136.56946902 -17.61974008 138.45518097 -17.61838913 140.34088516 C-17.61742156 143.32503923 -17.63039167 146.30883546 -17.64736938 149.29293823 C-17.69358498 157.77420332 -17.7182646 166.25542964 -17.72485352 174.73681641 C-17.72986115 179.93100402 -17.75406653 185.1248144 -17.79018021 190.31887436 C-17.79998952 192.29721693 -17.80230401 194.2756113 -17.79700851 196.2539711 C-17.78995719 199.01656894 -17.80717775 201.77803641 -17.82983398 204.54052734 C-17.82166153 205.35828644 -17.81348907 206.17604553 -17.80506897 207.01858521 C-17.8573017 210.59207716 -18.03814726 212.73846124 -20.1612854 215.6725769 C-23.35770292 217.8524583 -25.55857794 217.62600849 -29.34399414 217.16113281 C-32.02738857 216.09541321 -32.02738857 216.09541321 -34.34399414 214.16113281 C-34.85672976 211.49366267 -35.01665065 209.44778236 -34.97218323 206.77514648 C-34.97927761 206.01672014 -34.986372 205.2582938 -34.99368137 204.47688484 C-35.01132928 201.92711321 -34.99312282 199.37885246 -34.97509766 196.82910156 C-34.98023426 195.00415857 -34.98751357 193.17922052 -34.9967804 191.35429382 C-35.01534619 186.38882959 -35.00231905 181.42390015 -34.9826901 176.45845795 C-34.96632506 171.25989643 -34.97511442 166.06136938 -34.98020935 160.86279297 C-34.98473593 152.12312269 -34.96883348 143.38366601 -34.94091797 134.64404297 C-34.90894367 124.55630611 -34.90884888 114.46895626 -34.92613274 104.38119221 C-34.94203659 94.66941312 -34.93523428 84.95777517 -34.91819572 75.2460022 C-34.91134326 71.11866474 -34.9123394 66.99144101 -34.91974068 62.86410522 C-34.92744094 57.99173574 -34.91515583 53.11980239 -34.88789177 48.2475071 C-34.88104288 46.46542466 -34.88087214 44.68330123 -34.8881073 42.90122032 C-34.93356942 30.237363 -34.26660205 19.38064528 -25.06665039 9.80957031 C-17.65358249 2.71588629 -10.15140744 0.06259035 0 0 Z " fill="#304E65" transform="translate(147.343994140625,128.8388671875)"/>
<path d="M0 0 C4.14465332 2.54633711 7.14823366 5.4618684 9 10 C9.60885301 16.19000563 8.72734212 19.89431103 5 25 C2.39103135 27.80716667 -0.4029334 30.37463705 -3.25 32.9375 C-3.99507813 33.62134766 -4.74015625 34.30519531 -5.5078125 35.00976562 C-7.33136287 36.68135346 -9.16200297 38.3443338 -11 40 C-9.81482259 42.50322225 -8.69506799 44.37885493 -6.9375 46.5625 C-5 49 -5 49 -4 52 C-4.69629359 51.84620849 -5.39258718 51.69241697 -6.10998058 51.53396511 C-12.2132736 50.40630987 -18.85448608 49.32085349 -24.51587486 52.34303093 C-26.91375246 54.3269743 -29.02538041 56.42555384 -31.1550293 58.69506836 C-31.97301498 59.51276199 -32.79100067 60.33045563 -33.6337738 61.17292786 C-36.31247698 63.86571289 -38.94233534 66.60134743 -41.57421875 69.33984375 C-43.43121374 71.22364607 -45.29119126 73.10451254 -47.15400696 74.9825592 C-51.54087386 79.41483716 -55.89398649 83.8787399 -60.23530179 88.35559613 C-65.66217311 93.94877914 -71.1303089 99.50108717 -76.59960938 105.05273438 C-82.17828635 110.71671491 -87.75292949 116.38432803 -93.29972839 122.07957458 C-94.14065033 122.94179626 -94.98157227 123.80401794 -95.84797668 124.69236755 C-97.4224522 126.30771895 -98.99484793 127.92510101 -100.56481934 129.54483032 C-101.25557053 130.25299393 -101.94632172 130.96115753 -102.65800476 131.69078064 C-103.55907975 132.61856528 -103.55907975 132.61856528 -104.47835827 133.56509304 C-107.93382078 136.82359148 -111.70852152 136.33065878 -116.234375 136.27734375 C-120.13698363 135.88598046 -122.17241898 134.68620197 -125 132 C-128.31095489 127.25429799 -128.87564493 122.62041864 -128 117 C-125.12782814 111.0059022 -119.74457395 106.56209033 -115 102 C-116.58667578 98.09714233 -119.13350481 95.66479018 -122.125 92.75 C-123.49011719 91.41195312 -123.49011719 91.41195312 -124.8828125 90.046875 C-125.58148438 89.37140625 -126.28015625 88.6959375 -127 88 C-122.38844274 83.37273045 -122.38844274 83.37273045 -120.26171875 81.33203125 C-116.93022455 78.11627134 -113.97351829 74.77767256 -111.125 71.125 C-101.3933145 58.82938967 -91.78878126 51.45519326 -76 49 C-73.52076292 49.03724176 -71.04159173 49.07909089 -68.5625 49.125 C-61.62132629 48.82538099 -58.47889194 46.59781115 -53.875 41.75 C-52.3868093 40.10895564 -50.93373397 38.45310726 -49.52294922 36.74511719 C-47.45937499 34.38050856 -45.22902777 32.20937039 -43 30 C-41.94835477 28.93549524 -40.8983159 27.86940192 -39.84960938 26.80200195 C-36.7426686 23.64172754 -33.62665135 20.49057599 -30.50732422 17.3425293 C-29.16642007 15.98645802 -27.82820947 14.62771814 -26.49267578 13.26635742 C-24.55426565 11.29153963 -22.6063084 9.32658921 -20.65625 7.36328125 C-20.0634021 6.75494949 -19.4705542 6.14661774 -18.85974121 5.51985168 C-13.12105213 -0.22114263 -8.02847112 -2.37423163 0 0 Z " fill="#98BFD8" transform="translate(372,136)"/>
<path d="M0 0 C1.04162796 -0.01272446 2.08325592 -0.02544891 3.15644836 -0.03855896 C4.29370361 -0.03203308 5.43095886 -0.0255072 6.60267639 -0.01878357 C8.40566948 -0.03170692 8.40566948 -0.03170692 10.24508667 -0.04489136 C13.538812 -0.06370515 16.83153157 -0.06444592 20.12523341 -0.05556989 C22.87625434 -0.05045799 25.62718513 -0.05775422 28.37819678 -0.06504196 C34.86911915 -0.0820416 41.35980645 -0.07847499 47.85072327 -0.06175232 C54.54356308 -0.0448322 61.23575063 -0.06066307 67.92851919 -0.0929752 C73.67814866 -0.11968066 79.4275752 -0.12694457 85.17726046 -0.11846012 C88.60979567 -0.11353335 92.04193848 -0.11573204 95.47442436 -0.13624763 C99.30259058 -0.15803291 103.12997208 -0.1391952 106.95814514 -0.11643982 C108.66099167 -0.13397812 108.66099167 -0.13397812 110.39823914 -0.15187073 C118.94992423 -0.04826316 118.94992423 -0.04826316 122.06021118 2.92080688 C123.88835434 5.57751032 124.4728553 6.51282095 123.97010803 9.6396637 C123.89018616 10.30224182 123.81026428 10.96481995 123.72792053 11.6474762 C122.41403986 14.42639195 120.54819691 15.14061089 117.84510803 16.5146637 C115.33851624 16.89777374 115.33851624 16.89777374 112.64588928 16.90907288 C111.61971497 16.92042267 110.59354065 16.93177246 109.53627014 16.94346619 C108.42131165 16.94053558 107.30635315 16.93760498 106.15760803 16.93458557 C104.97497375 16.94305511 103.79233948 16.95152466 102.5738678 16.96025085 C99.33829187 16.97961756 96.10307035 16.98539971 92.8674469 16.98350334 C90.16360726 16.98338349 87.45982136 16.99195344 84.7559967 17.00028086 C78.3768097 17.01949942 71.99775355 17.02240397 65.61854553 17.01564026 C59.04214899 17.0089958 52.4663128 17.03188288 45.89002991 17.06895399 C40.23806021 17.09965606 34.58627077 17.11101066 28.93421936 17.10711718 C25.56091926 17.10505065 22.18805556 17.11051334 18.81483459 17.13500977 C15.05363758 17.15710096 11.2937997 17.14754587 7.53260803 17.12989807 C5.86017029 17.14979294 5.86017029 17.14979294 4.15394592 17.17008972 C-3.36384453 17.08797363 -3.36384453 17.08797363 -7.35020447 14.1988678 C-9.72170006 10.67162101 -9.83709753 8.6836977 -9.15489197 4.5146637 C-6.33667948 0.92369096 -4.52518105 0.014047 0 0 Z " fill="#236597" transform="translate(235.15489196777344,317.48533630371094)"/>
<path d="M0 0 C1.18424057 -0.00394272 2.36848114 -0.00788544 3.58860779 -0.01194763 C6.82854636 -0.01750368 10.06742387 -0.00078095 13.30722356 0.02653241 C16.70060199 0.05039857 20.09396409 0.04741774 23.4874115 0.0478363 C29.18446673 0.0524613 34.8811873 0.07608301 40.578125 0.11230469 C47.16232808 0.15405655 53.74623001 0.17162087 60.33055788 0.17492443 C67.34510792 0.17852552 74.35954981 0.19740053 81.37405467 0.22204471 C83.39358168 0.22826931 85.41310045 0.23190812 87.43263435 0.23507881 C91.19611236 0.24410306 94.95926584 0.2664783 98.72265625 0.29296875 C100.40048691 0.29396576 100.40048691 0.29396576 102.11221313 0.29498291 C103.13701279 0.30495804 104.16181244 0.31493317 105.21766663 0.32521057 C106.55189966 0.33218633 106.55189966 0.33218633 107.91308689 0.33930302 C110.52353492 0.62412214 112.09769663 1.17559526 114.29663086 2.59936523 C116.78500051 6.33191972 116.83889638 8.18377458 116.29663086 12.59936523 C114.11717141 15.27458587 112.30009375 16.44797573 108.86753654 16.96583557 C105.7083596 17.12249341 102.57271611 17.13950349 99.40966797 17.11694336 C97.6040464 17.12745728 97.6040464 17.12745728 95.76194763 17.13818359 C92.46833708 17.15275616 89.17573374 17.14936476 85.88217998 17.13666725 C82.43271601 17.12652433 78.98329443 17.13593629 75.53382874 17.14221191 C69.74268891 17.14948363 63.95175333 17.13991228 58.16064453 17.12084961 C51.46727077 17.09907125 44.77438421 17.10614071 38.0810222 17.12815523 C32.3305456 17.14631073 26.5802156 17.14886722 20.8297196 17.13840055 C17.39673822 17.13216767 13.96398584 17.13132427 10.53101921 17.14454651 C6.70522001 17.15825337 2.87996617 17.13925281 -0.94580078 17.11694336 C-2.65168365 17.12908875 -2.65168365 17.12908875 -4.39202881 17.14147949 C-5.95447075 17.12456055 -5.95447075 17.12456055 -7.54847717 17.1072998 C-8.45271455 17.1057917 -9.35695192 17.1042836 -10.28859043 17.1027298 C-13.5022108 16.43284539 -14.69975526 15.15286652 -16.70336914 12.59936523 C-17.38554249 8.43052812 -17.26949182 6.44216279 -14.89967346 2.91416931 C-10.10146705 -0.56075255 -5.78505644 -0.07686066 0 0 Z " fill="#236597" transform="translate(242.703369140625,287.400634765625)"/>
<path d="M0 0 C2.7792449 1.01456864 3.87550585 1.87550585 6 4 C6 4.66 6 5.32 6 6 C6.66 6 7.32 6 8 6 C9.33984375 7.58203125 9.33984375 7.58203125 10.9375 9.8125 C15.41296645 15.76714604 20.66032604 20.83413097 26 26 C24.07577497 30.60140767 20.65479294 33.40519631 17.09375 36.78125 C13.38097279 40.71568555 12.74693133 43.37111592 12.875 48.75 C12.89304687 49.73484375 12.91109375 50.7196875 12.9296875 51.734375 C12.95289063 52.48203125 12.97609375 53.2296875 13 54 C6.63630549 48.75985214 0.75616774 43.04385586 -5.09936523 37.25073242 C-6.24511409 36.12163832 -7.39621474 34.9979503 -8.55249023 33.87963867 C-10.24137988 32.24566838 -11.9130754 30.59570355 -13.58203125 28.94140625 C-14.09659378 28.44951309 -14.61115631 27.95761993 -15.14131165 27.45082092 C-19.03106725 23.53786199 -19.33707946 21.82022188 -21 16 C-37.83 16 -54.66 16 -72 16 C-72 15.67 -72 15.34 -72 15 C-55.17 15 -38.34 15 -21 15 C-20.34 12.03 -19.68 9.06 -19 6 C-14.98376263 -2.03247475 -8.21704991 -0.69872873 0 0 Z " fill="#256696" transform="translate(232,210)"/>
<path d="M0 0 C0.87914062 0.00902344 1.75828125 0.01804688 2.6640625 0.02734375 C4.8178271 0.05075423 6.97145014 0.0866199 9.125 0.125 C1.49189213 9.30411313 -7.07005628 17.62020901 -15.47949219 26.07958984 C-17.50380791 28.11734691 -19.52056426 30.16217312 -21.53125 32.21337891 C-23.97159496 34.70286845 -26.42382814 37.18001937 -28.88529587 39.64862061 C-30.27161932 41.04493116 -31.64574748 42.45331552 -33.01968384 43.86181641 C-33.8609079 44.70019043 -34.70213196 45.53856445 -35.56884766 46.40234375 C-36.30575836 47.14734131 -37.04266907 47.89233887 -37.8019104 48.65991211 C-39.875 50.125 -39.875 50.125 -41.96932983 50.01416016 C-45.102806 48.55212218 -47.2752699 46.03249188 -49.625 43.5625 C-50.13160156 43.04236328 -50.63820312 42.52222656 -51.16015625 41.98632812 C-52.40534405 40.70589916 -53.64111502 39.41632446 -54.875 38.125 C-50.26344274 33.49773045 -50.26344274 33.49773045 -48.13671875 31.45703125 C-44.80522455 28.24127134 -41.84851829 24.90267256 -39 21.25 C-32.32252595 12.81326836 -26.02466221 6.1429108 -15.875 2.125 C-14.98941406 1.75503906 -14.10382813 1.38507813 -13.19140625 1.00390625 C-8.74160761 -0.17536901 -4.57897633 -0.08964863 0 0 Z " fill="#DCF9FB" transform="translate(299.875,185.875)"/>
<path d="M0 0 C1.37093536 -0.00337114 2.7418678 -0.00822625 4.11279297 -0.01449585 C6.98108474 -0.02185344 9.84859609 -0.0111996 12.71679688 0.01220703 C16.38583493 0.04069651 20.05304436 0.02428622 23.72201538 -0.00565529 C26.55149002 -0.02375983 29.38053406 -0.01795631 32.21002197 -0.00501633 C34.21798903 -0.00007872 36.2259731 -0.01521214 38.23388672 -0.03067017 C48.35435545 0.0995638 48.35435545 0.0995638 51.44921875 3.01806641 C53.125 5.6640625 53.125 5.6640625 53.8125 8.6640625 C53.04780101 12.00093083 51.9530027 13.50682982 49.27102661 15.61422729 C44.4547207 17.97036187 38.83304326 17.34788807 33.58984375 17.29296875 C31.62272179 17.29658669 31.62272179 17.29658669 29.61585999 17.30027771 C26.8476745 17.30312778 24.0803017 17.28851261 21.31225586 17.26098633 C17.77233409 17.2268693 14.23386119 17.23293917 10.69386959 17.2516489 C7.30488464 17.26478359 3.91631859 17.24649889 0.52734375 17.23046875 C-0.74045425 17.23542862 -2.00825226 17.24038849 -3.31446838 17.24549866 C-4.4959697 17.22966232 -5.67747101 17.21382599 -6.89477539 17.19750977 C-7.93146866 17.19131119 -8.96816193 17.18511261 -10.03627014 17.1787262 C-13.63005597 16.52717033 -15.30290508 15.21853996 -17.875 12.6640625 C-19 9.2265625 -19 9.2265625 -18.875 5.6640625 C-14.57367646 -1.36527308 -7.49249979 -0.05768141 0 0 Z " fill="#236597" transform="translate(305.875,258.3359375)"/>
<path d="M0 0 C2.5 1.5625 2.5 1.5625 4 4 C4.59677999 8.10286241 4.38925759 10.26819573 2.4375 13.9375 C0 16 0 16 -3.4375 16.6875 C-7 16 -7 16 -10 13.4375 C-12 10 -12 10 -12 6.3125 C-10.02750471 -0.22139063 -6.67783908 -1.18239404 0 0 Z " fill="#2D6993" transform="translate(205,318)"/>
<path d="M0 0 C2.875 1.5 2.875 1.5 5 4 C5.94237143 7.99893269 5.61136591 10.98105682 3.5 14.5 C-0.28726141 16.77235685 -2.61177849 16.55723448 -7 16 C-9.87787669 13.49346224 -10.72468768 10.76260171 -11 7 C-9.30333815 0.92029504 -6.18890773 -0.74266893 0 0 Z " fill="#286794" transform="translate(204,288)"/>
<path d="M0 0 C-3.42687748 2.28458499 -4.63940311 2.24451452 -8.66479492 2.22705078 C-9.82577194 2.22689972 -10.98674896 2.22674866 -12.1829071 2.22659302 C-13.43610245 2.21627045 -14.68929779 2.20594788 -15.98046875 2.1953125 C-17.26359451 2.1924826 -18.54672028 2.18965271 -19.86872864 2.18673706 C-23.27676202 2.17910797 -26.68462441 2.15946587 -30.09259033 2.1373291 C-33.57146898 2.11685497 -37.05037532 2.107732 -40.52929688 2.09765625 C-47.35293474 2.07621918 -54.17645916 2.04209205 -61 2 C-61 1.67 -61 1.34 -61 1 C-57.53050027 0.22273331 -54.27486698 -0.14797931 -50.72241211 -0.22119141 C-49.18072609 -0.25595078 -49.18072609 -0.25595078 -47.6078949 -0.29141235 C-46.50881302 -0.3112619 -45.40973114 -0.33111145 -44.27734375 -0.3515625 C-43.13971085 -0.37471527 -42.00207794 -0.39786804 -40.82997131 -0.42172241 C-38.42860192 -0.46927428 -36.02718587 -0.51451871 -33.62573242 -0.55761719 C-29.94756896 -0.62481604 -26.26973062 -0.70257236 -22.59179688 -0.78125 C-20.25782469 -0.82615892 -17.92384053 -0.87045069 -15.58984375 -0.9140625 C-13.93818459 -0.94990952 -13.93818459 -0.94990952 -12.25315857 -0.98648071 C-11.22852005 -1.0033493 -10.20388153 -1.0202179 -9.14819336 -1.03759766 C-7.79847694 -1.06305161 -7.79847694 -1.06305161 -6.42149353 -1.08901978 C-4.1258525 -1.00462663 -2.19549415 -0.65103283 0 0 Z " fill="#2B648A" transform="translate(356,273)"/>
<path d="M0 0 C-1.37982935 3.19695338 -2.88828803 5.00247456 -5.5703125 7.20141602 C-10.24851003 11.16457444 -14.55600519 15.42932496 -18.875 19.77734375 C-19.68493408 20.58869278 -20.49486816 21.40004181 -21.3293457 22.23597717 C-23.88861015 24.80079139 -26.4443553 27.36907948 -29 29.9375 C-30.74586133 31.68838283 -32.49195287 33.43903613 -34.23828125 35.18945312 C-38.49485198 39.45698616 -42.74854716 43.72736866 -47 48 C-47.66 47.67 -48.32 47.34 -49 47 C-42.9123708 40.86610536 -36.81941096 34.73757132 -30.71950722 28.61588287 C-27.8874886 25.77341065 -25.057367 22.92910117 -22.23144531 20.08056641 C-19.50608701 17.33353584 -16.77592416 14.59136742 -14.04230881 11.85255432 C-12.99832609 10.80486572 -11.9561102 9.75541357 -10.91566849 8.70420837 C-9.46220021 7.2362998 -8.00267235 5.77469126 -6.54150391 4.31445312 C-5.71099518 3.47950317 -4.88048645 2.64455322 -4.02481079 1.78430176 C-2 0 -2 0 0 0 Z " fill="#A1C4D4" transform="translate(311,186)"/>
<path d="M0 0 C1.13500694 0.88312038 2.25761307 1.78218855 3.375 2.6875 C4.00148438 3.18636719 4.62796875 3.68523437 5.2734375 4.19921875 C7 6 7 6 9 11 C3.72 10.01 -1.56 9.02 -7 8 C-1.125 1.125 -1.125 1.125 0 0 Z " fill="#39566A" transform="translate(359,177)"/>
<path d="M0 0 C4.875 1.875 4.875 1.875 6 3 C6.07205511 4.68608966 6.08386068 6.37500659 6.0625 8.0625 C6.05347656 8.98160156 6.04445312 9.90070313 6.03515625 10.84765625 C6.02355469 11.55792969 6.01195312 12.26820313 6 13 C3 13 3 13 0 11 C0 10.34 0 9.68 0 9 C-0.66 9 -1.32 9 -2 9 C-1.41196203 5.97580475 -0.77321882 2.98241547 0 0 Z " fill="#236598" transform="translate(201,319)"/>
<path d="M0 0 C3.7758544 0.52442422 6.22372155 1.32654667 9 4 C9 4.99 9 5.98 9 7 C8.01 7.495 8.01 7.495 7 8 C6.67 8.99 6.34 9.98 6 11 C4.35 10.67 2.7 10.34 1 10 C-0.1577506 6.52674819 -0.06866652 3.63932552 0 0 Z " fill="#216698" transform="translate(195,290)"/>
<path d="M0 0 C2.77421878 1.01929702 3.87744912 1.87744912 6 4 C6 4.66 6 5.32 6 6 C2.125 4.125 2.125 4.125 1 3 C-7.50517756 1.85454421 -7.50517756 1.85454421 -15.26171875 4.5625 C-16.71834503 6.31186232 -17.92615217 7.99548405 -19 10 C-19.33 9.34 -19.66 8.68 -20 8 C-16.00207128 -1.59502893 -9.41947127 -0.90634088 0 0 Z " fill="#295D84" transform="translate(232,210)"/>
<path d="M0 0 C4.10593254 0.39480121 5.57841892 1.16946344 8.25 4.3125 C8.80613536 7.21357722 8.58955349 9.30502622 8.25 12.3125 C7.59 12.9725 6.93 13.6325 6.25 14.3125 C5.59 13.6525 4.93 12.9925 4.25 12.3125 C4.91 12.3125 5.57 12.3125 6.25 12.3125 C5.92 10.0025 5.59 7.6925 5.25 5.3125 C4.693125 5.580625 4.13625 5.84875 3.5625 6.125 C2.799375 6.186875 2.03625 6.24875 1.25 6.3125 C-1.5 3.875 -1.5 3.875 -3.75 1.3125 C-2.75 0.3125 -2.75 0.3125 0 0 Z " fill="#336E96" transform="translate(200.75,287.6875)"/>
<path d="M0 0 C0 2.66666667 0 5.33333333 0 8 C0.99 6.68 1.98 5.36 3 4 C3.66 6.31 4.32 8.62 5 11 C3.02 11.33 1.04 11.66 -1 12 C-3 9 -3 9 -2.75 5.4375 C-2 2 -2 2 0 0 Z " fill="#34719C" transform="translate(290,260)"/>
<path d="M0 0 C0.66 0.33 1.32 0.66 2 1 C-1.99713056 8.70875179 -1.99713056 8.70875179 -6 10 C-6.99 10.33 -7.98 10.66 -9 11 C-7.59155282 7.78475695 -5.89655214 5.67816132 -3.375 3.25 C-2.74335937 2.63640625 -2.11171875 2.0228125 -1.4609375 1.390625 C-0.73777344 0.70226562 -0.73777344 0.70226562 0 0 Z " fill="#334859" transform="translate(127,134)"/>
<path d="M0 0 C1.485 0.99 1.485 0.99 3 2 C6.12521833 2.16699232 6.12521833 2.16699232 9 2 C9 3.32 9 4.64 9 6 C5.625 6.125 5.625 6.125 2 6 C1.34 5.34 0.68 4.68 0 4 C0 2.68 0 1.36 0 0 Z " fill="#356E9C" transform="translate(196,328)"/>
<path d="M0 0 C2.31 1.98 4.62 3.96 7 6 C6.67 6.66 6.34 7.32 6 8 C5.38125 7.814375 4.7625 7.62875 4.125 7.4375 C1.95839822 6.76313824 1.95839822 6.76313824 0 8 C-1.125 6.25 -1.125 6.25 -2 4 C-1.34 2.68 -0.68 1.36 0 0 Z " fill="#314B60" transform="translate(359,177)"/>
<path d="M0 0 C0.680625 0.70125 1.36125 1.4025 2.0625 2.125 C5.20780513 5.27934337 8.5888386 8.13934304 12 11 C11.01 11.66 10.02 12.32 9 13 C8.67 12.34 8.34 11.68 8 11 C7.195625 10.7525 6.39125 10.505 5.5625 10.25 C3 9 3 9 1.75 6.0625 C1.5025 5.051875 1.255 4.04125 1 3 C0.67 2.01 0.34 1.02 0 0 Z " fill="#314658" transform="translate(241,154)"/>
<path d="M0 0 C-0.33 1.98 -0.66 3.96 -1 6 C-2.98 6.66 -4.96 7.32 -7 8 C-7 6.68 -7 5.36 -7 4 C-2.77777778 0 -2.77777778 0 0 0 Z " fill="#CFF2F8" transform="translate(360,270)"/>
<path d="M0 0 C0.99 0.33 1.98 0.66 3 1 C3.3669579 7.48292295 3.3669579 7.48292295 1.625 9.9375 C0 11 0 11 -2 11 C-1.125 7.125 -1.125 7.125 0 6 C0.04080783 4.00041636 0.04254356 1.99954746 0 0 Z " fill="#386F93" transform="translate(356,292)"/>
<path d="M0 0 C1.98 0 3.96 0 6 0 C6.33 2.64 6.66 5.28 7 8 C5.8274869 7.04882866 4.66212985 6.08882991 3.5 5.125 C2.8503125 4.59132813 2.200625 4.05765625 1.53125 3.5078125 C1.0259375 3.01023437 0.520625 2.51265625 0 2 C0 1.34 0 0.68 0 0 Z " fill="#3D7095" transform="translate(238,256)"/>
<path d="M0 0 C0.66 0.33 1.32 0.66 2 1 C1.071875 2.1446875 1.071875 2.1446875 0.125 3.3125 C-2.05597052 5.99625809 -2.05597052 5.99625809 -4 9 C-4.66 7.35 -5.32 5.7 -6 4 C-4.02 2.68 -2.04 1.36 0 0 Z " fill="#D4EFF4" transform="translate(279,190)"/>
<path d="M0 0 C0.33 0.99 0.66 1.98 1 3 C0.52949219 3.39832031 0.05898438 3.79664063 -0.42578125 4.20703125 C-1.04839844 4.73683594 -1.67101562 5.26664063 -2.3125 5.8125 C-2.92738281 6.33457031 -3.54226563 6.85664063 -4.17578125 7.39453125 C-5.85424679 8.87172469 -7.43882034 10.40039131 -9 12 C-9 9 -9 9 -6.75 6.5625 C-5.8425 5.716875 -4.935 4.87125 -4 4 C-3.236875 3.236875 -2.47375 2.47375 -1.6875 1.6875 C-1.130625 1.130625 -0.57375 0.57375 0 0 Z " fill="#96B7CA" transform="translate(331,164)"/>
<path d="M0 0 C1.98 0.495 1.98 0.495 4 1 C2.81323934 5.10801767 2.10551666 6.89448334 -1 10 C-0.67 6.7 -0.34 3.4 0 0 Z " fill="#D1F5FB" transform="translate(209,292)"/>
<path d="M0 0 C0.33 0 0.66 0 1 0 C1.16788373 1.62487471 1.33426787 3.24990442 1.5 4.875 C1.5928125 5.77992188 1.685625 6.68484375 1.78125 7.6171875 C2 10 2 10 2 12 C2.66 12.33 3.32 12.66 4 13 C3.01 13 2.02 13 1 13 C-0.80098121 9.17291493 -1.28143104 6.22146566 -1 2 C-0.67 1.34 -0.34 0.68 0 0 Z " fill="#356C92" transform="translate(212,220)"/>
<path d="M0 0 C0.99 0 1.98 0 3 0 C3.28571429 8.57142857 3.28571429 8.57142857 1 12 C0.67 12 0.34 12 0 12 C0 8.04 0 4.08 0 0 Z " fill="#9DBACB" transform="translate(378,146)"/>
<path d="M0 0 C2.475 0.99 2.475 0.99 5 2 C4.01 3.485 4.01 3.485 3 5 C3.3121764 7.64632287 3.3121764 7.64632287 4 10 C1.16625119 6.79663178 0.4794463 4.21912747 0 0 Z " fill="#CFE3EA" transform="translate(113,343)"/>
<path d="M0 0 C1.43861294 0.08746284 2.87597508 0.19565348 4.3125 0.3125 C5.11300781 0.37050781 5.91351563 0.42851562 6.73828125 0.48828125 C9.36272334 1.08206694 10.30820672 1.95780294 12 4 C10.5608866 3.71640113 9.12374482 3.42278601 7.6875 3.125 C6.88699219 2.96257812 6.08648437 2.80015625 5.26171875 2.6328125 C3 2 3 2 0 0 Z " fill="#9AB5C4" transform="translate(363,135)"/>
<path d="M0 0 C0.66 0.33 1.32 0.66 2 1 C1.01 3.97 0.02 6.94 -1 10 C-1.33 10 -1.66 10 -2 10 C-2.1953125 3.9453125 -2.1953125 3.9453125 -2 2 C-1.34 1.34 -0.68 0.68 0 0 Z " fill="#285171" transform="translate(212,215)"/>
<path d="M0 0 C0 0.66 0 1.32 0 2 C-0.99 2 -1.98 2 -3 2 C-3.66 3.65 -4.32 5.3 -5 7 C-5.99 6.34 -6.98 5.68 -8 5 C-2.25 0 -2.25 0 0 0 Z " fill="#9DBACA" transform="translate(362,136)"/>
<path d="M0 0 C5.66153846 1.47692308 5.66153846 1.47692308 7.375 4.125 C7.684375 5.053125 7.684375 5.053125 8 6 C5.33333333 4.66666667 2.66666667 3.33333333 0 2 C0 1.34 0 0.68 0 0 Z " fill="#2B587C" transform="translate(230,210)"/>
<path d="M0 0 C0.66 0.66 1.32 1.32 2 2 C-0.97 4.475 -0.97 4.475 -4 7 C-4.33 6.01 -4.66 5.02 -5 4 C-3.35 3.34 -1.7 2.68 0 2 C0 1.34 0 0.68 0 0 Z " fill="#96B0BD" transform="translate(374,160)"/>
</svg>
