<svg xmlns="http://www.w3.org/2000/svg" xmlns:xlink="http://www.w3.org/1999/xlink" width="500" zoomAndPan="magnify" viewBox="0 0 375 374.999991" height="500" preserveAspectRatio="xMidYMid meet" version="1.2"><defs><clipPath id="2f0f6baf98"><path d="M 109.953125 72.34375 L 265.203125 72.34375 L 265.203125 226.84375 L 109.953125 226.84375 Z M 109.953125 72.34375 "/></clipPath><clipPath id="0e865f5800"><path d="M 148.675781 123.941406 L 124.261719 134.398438 C 124.488281 113.972656 131.710938 95.855469 144.738281 84.945312 C 143.894531 90.117188 143.925781 96.585938 144.878906 104.300781 C 145.628906 110.375 146.914062 116.984375 148.675781 123.941406 Z M 234.3125 87.25 C 224.171875 79.554688 212.085938 74.292969 198.914062 72.347656 C 208.519531 76.402344 217.757812 82.671875 225.976562 90.824219 Z M 187.597656 107.265625 C 175.234375 87.882812 163.769531 77.65625 157.699219 77.65625 C 157.472656 77.65625 157.261719 77.683594 157.046875 77.714844 C 156.339844 78.015625 155.640625 78.339844 154.945312 78.664062 C 150.453125 82.582031 149.765625 98.140625 155.414062 121.054688 Z M 131.238281 171.519531 L 160.472656 158.996094 C 156.527344 149.464844 153.203125 140.019531 150.597656 131.023438 L 124.511719 142.199219 C 125.222656 151.78125 127.421875 161.707031 131.238281 171.519531 Z M 182.742188 88.078125 C 186.625 92.808594 190.523438 98.304688 194.34375 104.375 L 218.761719 93.914062 C 205.386719 81.449219 189.484375 74.300781 174.1875 74.300781 C 172.390625 74.300781 170.601562 74.410156 168.828125 74.613281 C 173.152344 77.570312 177.816406 82.070312 182.742188 88.078125 Z M 150.675781 203.304688 L 176.773438 192.121094 C 172.054688 184.03125 167.515625 175.109375 163.335938 165.675781 L 134.097656 178.203125 C 138.566406 187.734375 144.230469 196.183594 150.675781 203.304688 Z M 224.234375 99.476562 L 198.144531 110.652344 C 202.859375 118.746094 207.402344 127.667969 211.582031 137.101562 L 240.820312 124.574219 C 236.351562 115.042969 230.683594 106.597656 224.234375 99.476562 Z M 247.503906 121.710938 L 258.152344 117.148438 C 253.925781 107.792969 247.902344 99.433594 240.515625 92.5 L 231.25 96.472656 C 237.554688 103.765625 243.089844 112.242188 247.503906 121.710938 Z M 217.613281 174.625 C 215.179688 166.089844 211.925781 156.695312 207.761719 146.644531 L 170.019531 162.8125 C 174.421875 172.765625 178.980469 181.597656 183.480469 189.25 Z M 191.433594 113.527344 L 157.304688 128.148438 C 159.738281 136.6875 162.992188 146.078125 167.15625 156.132812 L 204.902344 139.960938 C 200.492188 130.007812 195.933594 121.183594 191.433594 113.527344 Z M 192.175781 214.699219 C 188.292969 209.964844 184.394531 204.472656 180.574219 198.402344 L 156.152344 208.863281 C 165.464844 217.546875 176.007812 223.644531 186.71875 226.546875 C 186.976562 226.546875 187.230469 226.566406 187.484375 226.566406 C 192.523438 226.566406 197.4375 226.070312 202.207031 225.152344 C 199.011719 222.425781 195.660156 218.949219 192.175781 214.699219 Z M 230.039062 198.476562 C 230.738281 204.144531 230.9375 209.132812 230.664062 213.4375 C 234.320312 210.976562 237.746094 208.203125 240.929688 205.175781 C 247.128906 194.980469 250.503906 182.210938 250.65625 168.375 L 226.242188 178.835938 C 228.003906 185.789062 229.289062 192.402344 230.039062 198.476562 Z M 243.679688 131.253906 L 214.445312 143.78125 C 218.390625 153.3125 221.714844 162.753906 224.320312 171.753906 L 250.40625 160.578125 C 249.695312 150.996094 247.5 141.066406 243.679688 131.253906 Z M 256.167969 185 C 259.773438 178.128906 262.371094 170.648438 263.785156 162.753906 L 257.867188 165.289062 C 258 172.101562 257.417969 178.71875 256.167969 185 Z M 260.832031 123.90625 L 250.359375 128.394531 C 254.167969 138.121094 256.488281 147.976562 257.417969 157.574219 L 264.8125 154.40625 C 264.933594 152.628906 265.019531 150.84375 265.019531 149.035156 C 265.019531 140.238281 263.53125 131.789062 260.832031 123.90625 Z M 187.316406 195.511719 C 196.320312 209.632812 204.847656 218.882812 211.160156 222.871094 C 215.203125 221.574219 219.097656 219.949219 222.824219 218.039062 C 224.339844 210.742188 223.546875 198.117188 219.503906 181.722656 Z M 120.910156 109.300781 C 115.371094 118.5625 111.714844 129.074219 110.457031 140.316406 L 117.054688 137.488281 C 116.855469 127.527344 118.1875 117.980469 120.910156 109.300781 Z M 118.703125 184.796875 C 123.503906 194.011719 130.085938 202.148438 138.015625 208.726562 L 143.675781 206.304688 C 137.367188 199.007812 131.828125 190.539062 127.410156 181.066406 Z M 117.5 145.203125 L 109.96875 148.429688 C 109.96875 148.632812 109.953125 148.832031 109.953125 149.035156 C 109.953125 159.355469 111.988281 169.195312 115.648438 178.199219 L 124.558594 174.382812 C 120.75 164.652344 118.429688 154.800781 117.5 145.203125 Z M 144.78125 213.738281 C 149.683594 216.980469 154.972656 219.6875 160.574219 221.761719 C 156.53125 218.886719 152.632812 215.613281 148.941406 211.953125 Z M 144.78125 213.738281 "/></clipPath></defs><g id="af9c64d25d"><g clip-rule="nonzero" clip-path="url(#2f0f6baf98)"><g clip-rule="nonzero" clip-path="url(#0e865f5800)"><path style=" stroke:none;fill-rule:nonzero;fill:#000000;fill-opacity:1;" d="M 109.953125 72.347656 L 109.953125 226.566406 L 265.019531 226.566406 L 265.019531 72.347656 Z M 109.953125 72.347656 "/></g></g><g style="fill:#000000;fill-opacity:1;"><g transform="translate(113.425871, 274.486264)"><path style="stroke:none" d="M 3.3125 -30.734375 L 13.171875 -30.734375 L 13.171875 -7.859375 L 28.953125 -7.859375 L 28.953125 0 L 3.3125 0 Z M 3.3125 -30.734375 "/></g></g><g style="fill:#000000;fill-opacity:1;"><g transform="translate(145.45706, 274.486264)"><path style="stroke:none" d="M 18.578125 -31.265625 C 23.878906 -31.265625 27.972656 -29.910156 30.859375 -27.203125 C 33.753906 -24.492188 35.203125 -20.546875 35.203125 -15.359375 C 35.203125 -10.179688 33.753906 -6.238281 30.859375 -3.53125 C 27.972656 -0.820312 23.878906 0.53125 18.578125 0.53125 C 13.273438 0.53125 9.1875 -0.8125 6.3125 -3.5 C 3.445312 -6.195312 2.015625 -10.148438 2.015625 -15.359375 C 2.015625 -20.578125 3.445312 -24.53125 6.3125 -27.21875 C 9.1875 -29.914062 13.273438 -31.265625 18.578125 -31.265625 Z M 18.578125 -23.90625 C 16.460938 -23.90625 14.851562 -23.265625 13.75 -21.984375 C 12.65625 -20.703125 12.109375 -18.972656 12.109375 -16.796875 L 12.109375 -13.9375 C 12.109375 -11.757812 12.65625 -10.03125 13.75 -8.75 C 14.851562 -7.46875 16.460938 -6.828125 18.578125 -6.828125 C 20.691406 -6.828125 22.304688 -7.46875 23.421875 -8.75 C 24.546875 -10.03125 25.109375 -11.757812 25.109375 -13.9375 L 25.109375 -16.796875 C 25.109375 -18.972656 24.546875 -20.703125 23.421875 -21.984375 C 22.304688 -23.265625 20.691406 -23.90625 18.578125 -23.90625 Z M 18.578125 -23.90625 "/></g></g><g style="fill:#000000;fill-opacity:1;"><g transform="translate(184.904006, 274.486264)"><path style="stroke:none" d="M 18.765625 -31.265625 C 21.710938 -31.265625 24.363281 -30.816406 26.71875 -29.921875 C 29.070312 -29.035156 30.9375 -27.71875 32.3125 -25.96875 C 33.695312 -24.226562 34.390625 -22.109375 34.390625 -19.609375 L 24.96875 -19.609375 C 24.96875 -20.890625 24.398438 -21.925781 23.265625 -22.71875 C 22.140625 -23.507812 20.773438 -23.90625 19.171875 -23.90625 C 16.847656 -23.90625 15.085938 -23.285156 13.890625 -22.046875 C 12.703125 -20.804688 12.109375 -19.054688 12.109375 -16.796875 L 12.109375 -13.9375 C 12.109375 -11.675781 12.703125 -9.925781 13.890625 -8.6875 C 15.085938 -7.445312 16.847656 -6.828125 19.171875 -6.828125 C 20.773438 -6.828125 22.140625 -7.207031 23.265625 -7.96875 C 24.398438 -8.726562 24.96875 -9.707031 24.96875 -10.90625 L 18 -10.90625 L 18 -17.15625 L 34.390625 -17.15625 L 34.390625 0 L 29.296875 0 L 28.328125 -3.03125 C 25.523438 -0.65625 21.859375 0.53125 17.328125 0.53125 C 12.234375 0.53125 8.40625 -0.796875 5.84375 -3.453125 C 3.289062 -6.117188 2.015625 -10.085938 2.015625 -15.359375 C 2.015625 -20.578125 3.460938 -24.53125 6.359375 -27.21875 C 9.265625 -29.914062 13.398438 -31.265625 18.765625 -31.265625 Z M 18.765625 -31.265625 "/></g></g><g style="fill:#000000;fill-opacity:1;"><g transform="translate(224.350951, 274.486264)"><path style="stroke:none" d="M 18.578125 -31.265625 C 23.878906 -31.265625 27.972656 -29.910156 30.859375 -27.203125 C 33.753906 -24.492188 35.203125 -20.546875 35.203125 -15.359375 C 35.203125 -10.179688 33.753906 -6.238281 30.859375 -3.53125 C 27.972656 -0.820312 23.878906 0.53125 18.578125 0.53125 C 13.273438 0.53125 9.1875 -0.8125 6.3125 -3.5 C 3.445312 -6.195312 2.015625 -10.148438 2.015625 -15.359375 C 2.015625 -20.578125 3.445312 -24.53125 6.3125 -27.21875 C 9.1875 -29.914062 13.273438 -31.265625 18.578125 -31.265625 Z M 18.578125 -23.90625 C 16.460938 -23.90625 14.851562 -23.265625 13.75 -21.984375 C 12.65625 -20.703125 12.109375 -18.972656 12.109375 -16.796875 L 12.109375 -13.9375 C 12.109375 -11.757812 12.65625 -10.03125 13.75 -8.75 C 14.851562 -7.46875 16.460938 -6.828125 18.578125 -6.828125 C 20.691406 -6.828125 22.304688 -7.46875 23.421875 -8.75 C 24.546875 -10.03125 25.109375 -11.757812 25.109375 -13.9375 L 25.109375 -16.796875 C 25.109375 -18.972656 24.546875 -20.703125 23.421875 -21.984375 C 22.304688 -23.265625 20.691406 -23.90625 18.578125 -23.90625 Z M 18.578125 -23.90625 "/></g></g><g style="fill:#000000;fill-opacity:1;"><g transform="translate(66.809157, 297.300302)"><path style="stroke:none" d="M 7.609375 -8.28125 L 7.609375 0 L 4.03125 0 L 4.03125 -8.28125 L 0.375 -8.28125 L 0.375 -11.140625 L 11.25 -11.140625 L 11.25 -8.28125 Z M 7.609375 -8.28125 "/></g></g><g style="fill:#000000;fill-opacity:1;"><g transform="translate(82.442965, 297.300302)"><path style="stroke:none" d="M 8.65625 0 L 8.1875 -1.5625 L 4.296875 -1.5625 L 3.8125 0 L 0.15625 0 L 4.21875 -11.140625 L 8.390625 -11.140625 L 12.453125 0 Z M 5.03125 -4.0625 L 7.453125 -4.0625 L 6.28125 -8.03125 L 6.21875 -8.03125 Z M 5.03125 -4.0625 "/></g></g><g style="fill:#000000;fill-opacity:1;"><g transform="translate(98.983041, 297.300302)"><path style="stroke:none" d="M 5.875 -11.328125 C 7.300781 -11.328125 8.472656 -11.035156 9.390625 -10.453125 C 10.304688 -9.878906 10.773438 -9.03125 10.796875 -7.90625 L 10.796875 -7.703125 L 7.453125 -7.703125 L 7.453125 -7.765625 C 7.453125 -8.085938 7.332031 -8.359375 7.09375 -8.578125 C 6.851562 -8.796875 6.488281 -8.90625 6 -8.90625 C 5.53125 -8.90625 5.164062 -8.832031 4.90625 -8.6875 C 4.65625 -8.550781 4.53125 -8.378906 4.53125 -8.171875 C 4.53125 -7.878906 4.703125 -7.660156 5.046875 -7.515625 C 5.390625 -7.378906 5.945312 -7.238281 6.71875 -7.09375 C 7.613281 -6.90625 8.347656 -6.710938 8.921875 -6.515625 C 9.503906 -6.316406 10.007812 -5.988281 10.4375 -5.53125 C 10.875 -5.082031 11.097656 -4.46875 11.109375 -3.6875 C 11.109375 -2.375 10.660156 -1.398438 9.765625 -0.765625 C 8.878906 -0.128906 7.691406 0.1875 6.203125 0.1875 C 4.460938 0.1875 3.109375 -0.0976562 2.140625 -0.671875 C 1.179688 -1.253906 0.703125 -2.285156 0.703125 -3.765625 L 4.078125 -3.765625 C 4.078125 -3.210938 4.222656 -2.835938 4.515625 -2.640625 C 4.804688 -2.453125 5.257812 -2.359375 5.875 -2.359375 C 6.332031 -2.359375 6.707031 -2.40625 7 -2.5 C 7.300781 -2.601562 7.453125 -2.804688 7.453125 -3.109375 C 7.453125 -3.378906 7.285156 -3.582031 6.953125 -3.71875 C 6.617188 -3.851562 6.082031 -3.992188 5.34375 -4.140625 C 4.4375 -4.335938 3.6875 -4.539062 3.09375 -4.75 C 2.5 -4.957031 1.976562 -5.304688 1.53125 -5.796875 C 1.09375 -6.285156 0.875 -6.941406 0.875 -7.765625 C 0.875 -8.984375 1.34375 -9.878906 2.28125 -10.453125 C 3.226562 -11.035156 4.425781 -11.328125 5.875 -11.328125 Z M 5.875 -11.328125 "/></g></g><g style="fill:#000000;fill-opacity:1;"><g transform="translate(114.616848, 297.300302)"><path style="stroke:none" d="M 8.734375 -11.140625 L 13.171875 -11.140625 L 9.171875 -6.5625 L 13.25 0 L 9.03125 0 L 6.71875 -4.078125 L 4.78125 -2.5 L 4.78125 0 L 1.203125 0 L 1.203125 -11.140625 L 4.78125 -11.140625 L 4.78125 -6.375 Z M 8.734375 -11.140625 "/></g></g><g style="fill:#000000;fill-opacity:1;"><g transform="translate(132.047023, 297.300302)"><path style="stroke:none" d=""/></g></g><g style="fill:#000000;fill-opacity:1;"><g transform="translate(141.385424, 297.300302)"><path style="stroke:none" d="M 10.765625 0 L 10.765625 -4.015625 C 10.765625 -4.515625 10.78125 -5.023438 10.8125 -5.546875 C 10.851562 -6.066406 10.894531 -6.503906 10.9375 -6.859375 C 10.976562 -7.210938 11.007812 -7.441406 11.03125 -7.546875 L 10.953125 -7.546875 L 8.90625 0 L 6.109375 0 L 4.03125 -7.53125 L 3.96875 -7.53125 C 3.976562 -7.425781 4.003906 -7.195312 4.046875 -6.84375 C 4.097656 -6.5 4.144531 -6.066406 4.1875 -5.546875 C 4.226562 -5.023438 4.25 -4.515625 4.25 -4.015625 L 4.25 0 L 0.96875 0 L 0.96875 -11.140625 L 6.015625 -11.140625 L 7.703125 -4.703125 L 7.765625 -4.703125 L 9.4375 -11.140625 L 14.3125 -11.140625 L 14.3125 0 Z M 10.765625 0 "/></g></g><g style="fill:#000000;fill-opacity:1;"><g transform="translate(160.611977, 297.300302)"><path style="stroke:none" d="M 8.65625 0 L 8.1875 -1.5625 L 4.296875 -1.5625 L 3.8125 0 L 0.15625 0 L 4.21875 -11.140625 L 8.390625 -11.140625 L 12.453125 0 Z M 5.03125 -4.0625 L 7.453125 -4.0625 L 6.28125 -8.03125 L 6.21875 -8.03125 Z M 5.03125 -4.0625 "/></g></g><g style="fill:#000000;fill-opacity:1;"><g transform="translate(177.152053, 297.300302)"><path style="stroke:none" d="M 9.15625 0 L 4.484375 -5.40625 L 4.484375 0 L 1.203125 0 L 1.203125 -11.140625 L 4.328125 -11.140625 L 9 -5.65625 L 9 -11.140625 L 12.28125 -11.140625 L 12.28125 0 Z M 9.15625 0 "/></g></g><g style="fill:#000000;fill-opacity:1;"><g transform="translate(194.582227, 297.300302)"><path style="stroke:none" d="M 8.65625 0 L 8.1875 -1.5625 L 4.296875 -1.5625 L 3.8125 0 L 0.15625 0 L 4.21875 -11.140625 L 8.390625 -11.140625 L 12.453125 0 Z M 5.03125 -4.0625 L 7.453125 -4.0625 L 6.28125 -8.03125 L 6.21875 -8.03125 Z M 5.03125 -4.0625 "/></g></g><g style="fill:#000000;fill-opacity:1;"><g transform="translate(211.122303, 297.300302)"><path style="stroke:none" d="M 6.796875 -11.328125 C 7.867188 -11.328125 8.828125 -11.164062 9.671875 -10.84375 C 10.523438 -10.519531 11.203125 -10.039062 11.703125 -9.40625 C 12.210938 -8.78125 12.46875 -8.015625 12.46875 -7.109375 L 9.046875 -7.109375 C 9.046875 -7.566406 8.835938 -7.9375 8.421875 -8.21875 C 8.015625 -8.507812 7.519531 -8.65625 6.9375 -8.65625 C 6.101562 -8.65625 5.46875 -8.429688 5.03125 -7.984375 C 4.601562 -7.535156 4.390625 -6.90625 4.390625 -6.09375 L 4.390625 -5.046875 C 4.390625 -4.222656 4.601562 -3.585938 5.03125 -3.140625 C 5.46875 -2.703125 6.101562 -2.484375 6.9375 -2.484375 C 7.519531 -2.484375 8.015625 -2.617188 8.421875 -2.890625 C 8.835938 -3.160156 9.046875 -3.515625 9.046875 -3.953125 L 6.53125 -3.953125 L 6.53125 -6.21875 L 12.46875 -6.21875 L 12.46875 0 L 10.625 0 L 10.265625 -1.09375 C 9.242188 -0.238281 7.914062 0.1875 6.28125 0.1875 C 4.4375 0.1875 3.050781 -0.289062 2.125 -1.25 C 1.195312 -2.21875 0.734375 -3.65625 0.734375 -5.5625 C 0.734375 -7.457031 1.257812 -8.890625 2.3125 -9.859375 C 3.363281 -10.835938 4.859375 -11.328125 6.796875 -11.328125 Z M 6.796875 -11.328125 "/></g></g><g style="fill:#000000;fill-opacity:1;"><g transform="translate(228.552478, 297.300302)"><path style="stroke:none" d="M 1.203125 -11.140625 L 10.828125 -11.140625 L 10.828125 -8.46875 L 4.78125 -8.46875 L 4.78125 -6.921875 L 9.953125 -6.921875 L 9.953125 -4.375 L 4.78125 -4.375 L 4.78125 -2.671875 L 10.9375 -2.671875 L 10.9375 0 L 1.203125 0 Z M 1.203125 -11.140625 "/></g></g><g style="fill:#000000;fill-opacity:1;"><g transform="translate(244.186285, 297.300302)"><path style="stroke:none" d="M 10.765625 0 L 10.765625 -4.015625 C 10.765625 -4.515625 10.78125 -5.023438 10.8125 -5.546875 C 10.851562 -6.066406 10.894531 -6.503906 10.9375 -6.859375 C 10.976562 -7.210938 11.007812 -7.441406 11.03125 -7.546875 L 10.953125 -7.546875 L 8.90625 0 L 6.109375 0 L 4.03125 -7.53125 L 3.96875 -7.53125 C 3.976562 -7.425781 4.003906 -7.195312 4.046875 -6.84375 C 4.097656 -6.5 4.144531 -6.066406 4.1875 -5.546875 C 4.226562 -5.023438 4.25 -4.515625 4.25 -4.015625 L 4.25 0 L 0.96875 0 L 0.96875 -11.140625 L 6.015625 -11.140625 L 7.703125 -4.703125 L 7.765625 -4.703125 L 9.4375 -11.140625 L 14.3125 -11.140625 L 14.3125 0 Z M 10.765625 0 "/></g></g><g style="fill:#000000;fill-opacity:1;"><g transform="translate(263.412827, 297.300302)"><path style="stroke:none" d="M 1.203125 -11.140625 L 10.828125 -11.140625 L 10.828125 -8.46875 L 4.78125 -8.46875 L 4.78125 -6.921875 L 9.953125 -6.921875 L 9.953125 -4.375 L 4.78125 -4.375 L 4.78125 -2.671875 L 10.9375 -2.671875 L 10.9375 0 L 1.203125 0 Z M 1.203125 -11.140625 "/></g></g><g style="fill:#000000;fill-opacity:1;"><g transform="translate(279.046646, 297.300302)"><path style="stroke:none" d="M 9.15625 0 L 4.484375 -5.40625 L 4.484375 0 L 1.203125 0 L 1.203125 -11.140625 L 4.328125 -11.140625 L 9 -5.65625 L 9 -11.140625 L 12.28125 -11.140625 L 12.28125 0 Z M 9.15625 0 "/></g></g><g style="fill:#000000;fill-opacity:1;"><g transform="translate(296.47682, 297.300302)"><path style="stroke:none" d="M 7.609375 -8.28125 L 7.609375 0 L 4.03125 0 L 4.03125 -8.28125 L 0.375 -8.28125 L 0.375 -11.140625 L 11.25 -11.140625 L 11.25 -8.28125 Z M 7.609375 -8.28125 "/></g></g></g></svg>